<svg width="26" height="26" viewBox="0 0 26 26" fill="none" xmlns="http://www.w3.org/2000/svg">
<path d="M19.942 4.498C19.6335 4.498 19.3319 4.5895 19.0753 4.76091C18.8188 4.93233 18.6188 5.17597 18.5008 5.46102C18.3827 5.74607 18.3518 6.05974 18.412 6.36235C18.4722 6.66496 18.6208 6.94292 18.8389 7.16109C19.0571 7.37926 19.3351 7.52784 19.6377 7.58803C19.9403 7.64823 20.254 7.61733 20.539 7.49926C20.8241 7.38119 21.0677 7.18124 21.2391 6.9247C21.4105 6.66816 21.502 6.36655 21.502 6.05801C21.502 5.64427 21.3377 5.24748 21.0451 4.95492C20.7526 4.66236 20.3558 4.498 19.942 4.498ZM25.922 7.64401C25.8967 6.56539 25.6947 5.49823 25.324 4.485C24.9935 3.61808 24.479 2.83306 23.816 2.184C23.1723 1.51766 22.3855 1.00643 21.515 0.689001C20.5045 0.307009 19.4361 0.100373 18.356 0.078C16.978 -7.26432e-08 16.536 0 13 0C9.46401 0 9.02201 -7.26432e-08 7.64401 0.078C6.5639 0.100373 5.49555 0.307009 4.485 0.689001C3.61618 1.00964 2.83002 1.52043 2.184 2.184C1.51766 2.82773 1.00643 3.61457 0.689001 4.485C0.307009 5.49555 0.100373 6.5639 0.078 7.64401C-7.26432e-08 9.02201 0 9.46401 0 13C0 16.536 -7.26432e-08 16.978 0.078 18.356C0.100373 19.4361 0.307009 20.5045 0.689001 21.515C1.00643 22.3855 1.51766 23.1723 2.184 23.816C2.83002 24.4796 3.61618 24.9904 4.485 25.311C5.49555 25.693 6.5639 25.8997 7.64401 25.922C9.02201 26 9.46401 26 13 26C16.536 26 16.978 26 18.356 25.922C19.4361 25.8997 20.5045 25.693 21.515 25.311C22.3855 24.9936 23.1723 24.4824 23.816 23.816C24.4819 23.1694 24.9969 22.3837 25.324 21.515C25.6947 20.5018 25.8967 19.4346 25.922 18.356C25.922 16.978 26 16.536 26 13C26 9.46401 26 9.02201 25.922 7.64401ZM23.582 18.2C23.5726 19.0252 23.4231 19.8428 23.14 20.618C22.9325 21.1838 22.5991 21.695 22.165 22.113C21.7434 22.5427 21.2332 22.8754 20.67 23.088C19.8948 23.3711 19.0772 23.5206 18.252 23.53C16.952 23.595 16.471 23.608 13.052 23.608C9.63301 23.608 9.15201 23.608 7.85201 23.53C6.99517 23.5461 6.14198 23.4141 5.33001 23.14C4.79152 22.9165 4.30477 22.5846 3.9 22.165C3.46852 21.7474 3.1393 21.2358 2.938 20.67C2.62062 19.8837 2.44458 19.0475 2.418 18.2C2.418 16.9 2.34 16.419 2.34 13C2.34 9.58101 2.34 9.10001 2.418 7.80001C2.42383 6.95638 2.57784 6.12033 2.873 5.33001C3.10186 4.78129 3.45315 4.29216 3.9 3.9C4.29496 3.45302 4.78308 3.09803 5.33001 2.86C6.12242 2.57406 6.9576 2.42461 7.80001 2.418C9.10001 2.418 9.58101 2.34 13 2.34C16.419 2.34 16.9 2.34 18.2 2.418C19.0252 2.42747 19.8428 2.57692 20.618 2.86C21.2088 3.07925 21.739 3.4357 22.165 3.9C22.591 4.29934 22.9239 4.78756 23.14 5.33001C23.429 6.12162 23.5785 6.95732 23.582 7.80001C23.647 9.10001 23.66 9.58101 23.66 13C23.66 16.419 23.647 16.9 23.582 18.2ZM13 6.33101C11.6816 6.33358 10.3935 6.72689 9.29846 7.46125C8.20346 8.19561 7.3507 9.23806 6.84793 10.4569C6.34516 11.6757 6.21495 13.0162 6.47374 14.309C6.73253 15.6018 7.36871 16.7889 8.30191 17.7203C9.2351 18.6517 10.4234 19.2855 11.7167 19.5418C13.01 19.7981 14.3503 19.6653 15.5681 19.1601C16.786 18.655 17.8268 17.8002 18.559 16.7038C19.2912 15.6073 19.682 14.3185 19.682 13C19.6837 12.1226 19.512 11.2536 19.1766 10.4429C18.8413 9.63211 18.3489 8.89566 17.7279 8.27587C17.107 7.65609 16.3695 7.16519 15.5582 6.83141C14.7468 6.49764 13.8774 6.32758 13 6.33101ZM13 17.329C12.1438 17.329 11.3068 17.0751 10.5949 16.5994C9.88305 16.1238 9.32819 15.4477 9.00053 14.6567C8.67288 13.8656 8.58715 12.9952 8.75419 12.1555C8.92123 11.3157 9.33352 10.5444 9.93894 9.93894C10.5444 9.33352 11.3157 8.92123 12.1555 8.75419C12.9952 8.58715 13.8656 8.67288 14.6567 9.00053C15.4477 9.32819 16.1238 9.88305 16.5994 10.5949C17.0751 11.3068 17.329 12.1438 17.329 13C17.329 13.5685 17.217 14.1314 16.9995 14.6567C16.7819 15.1819 16.4631 15.6591 16.0611 16.0611C15.6591 16.4631 15.1819 16.7819 14.6567 16.9995C14.1314 17.217 13.5685 17.329 13 17.329Z" fill="white"/>
</svg>
