<svg width="133" height="133" viewBox="0 0 133 133" fill="none" xmlns="http://www.w3.org/2000/svg">
<path fill-rule="evenodd" clip-rule="evenodd" d="M53.581 1.27985C89.6011 -5.85509 124.585 17.5609 131.72 53.581C138.855 89.6011 115.439 124.585 79.4189 131.72C43.3989 138.855 8.41483 115.439 1.27988 79.4189C-5.85506 43.3988 17.561 8.41479 53.581 1.27985ZM52.1904 6.6272C44.9575 9.1481 39.0569 16.5302 35.5379 27.6189C34.5171 30.8353 33.7124 34.3248 33.1433 38.0331C40.2492 34.6726 48.2445 31.9375 56.8317 30.0584L52.1904 6.6272ZM27.9415 40.6914C28.5315 35.487 29.5477 30.605 30.9568 26.165C32.7011 20.6681 35.0888 15.7467 38.083 11.7369C19.4001 21.4207 6.86984 40.1411 5.03935 61.1049C7.6049 56.8082 11.2445 52.7247 15.6615 49.0166C19.229 46.0214 23.3549 43.2209 27.9415 40.6914ZM27.4667 46.5138C27.0689 54.3642 27.5882 62.7984 29.1246 71.4535L5.6933 76.0948C5.26658 68.4468 9.84189 60.1776 18.7519 52.6976C21.3363 50.5278 24.2555 48.4537 27.4667 46.5138ZM33.8404 70.5194C32.1714 61.0725 31.7761 51.9715 32.4712 43.7233C39.8315 39.9365 48.3963 36.8322 57.7657 34.774L59.783 44.9577C58.053 54.6384 52.3123 63.2143 44.0216 68.5027L33.8404 70.5194ZM30.0585 76.1683L6.62721 80.8096C9.14821 88.0428 16.5302 93.9431 27.6189 97.4621C30.8353 98.4828 34.3248 99.2875 38.033 99.8567C34.6726 92.7508 31.9375 84.7554 30.0585 76.1683ZM43.7234 100.529C39.9365 93.1684 36.8326 84.6039 34.7743 75.2342L44.9555 73.2174C54.6362 74.946 63.2129 80.6859 68.5022 88.9761L70.5195 99.1599C61.0729 100.829 51.9715 101.224 43.7234 100.529ZM40.6915 105.058C35.487 104.468 30.605 103.452 26.1651 102.043C20.6682 100.299 15.7467 97.9112 11.7369 94.9169C21.4207 113.6 40.1412 126.13 61.1049 127.961C56.8082 125.395 52.7247 121.755 49.0166 117.338C46.0214 113.771 43.2209 109.645 40.6915 105.058ZM76.0948 127.307C68.4471 127.733 60.178 123.158 52.6976 114.248C50.5278 111.664 48.4536 108.744 46.5138 105.533C54.3642 105.931 62.7985 105.412 71.4535 103.875L76.0948 127.307ZM94.9169 121.263C97.9112 117.253 100.299 112.332 102.043 106.835C103.452 102.395 104.468 97.5129 105.058 92.3085C109.645 89.7791 113.771 86.9785 117.339 83.9833C121.755 80.2753 125.395 76.1917 127.961 71.8951C126.13 92.8588 113.6 111.579 94.9169 121.263ZM99.8567 94.9669C99.2875 98.675 98.4829 102.165 97.4621 105.381C93.9434 116.47 88.0428 123.852 80.8096 126.373L76.1683 102.941C84.7555 101.063 92.7508 98.3272 99.8567 94.9669ZM105.533 86.4861C108.744 84.5463 111.664 82.4721 114.248 80.3023C123.158 72.822 127.733 64.5532 127.307 56.9051L103.875 61.5465C105.412 70.2015 105.931 78.6358 105.533 86.4861ZM99.1599 62.4805C100.829 71.9274 101.224 81.0285 100.529 89.2766C93.1684 93.0635 84.604 96.1677 75.2342 98.226L73.2185 88.0497C74.9465 78.3661 80.6882 69.7866 88.9813 64.4967L99.1599 62.4805ZM102.941 56.8317L126.373 52.1904C123.852 44.9571 116.47 39.0566 105.381 35.5379C102.165 34.5171 98.6751 33.7125 94.967 33.1432C98.3272 40.2492 101.063 48.2445 102.941 56.8317ZM89.2766 32.4712C93.0635 39.8315 96.1677 48.396 98.226 57.7657L88.0474 59.7819C78.364 58.0529 69.7853 52.31 64.4963 44.0163L62.4805 33.84C71.9274 32.1711 81.0285 31.7761 89.2766 32.4712ZM92.3085 27.9415C97.5129 28.5315 102.395 29.5477 106.835 30.9567C112.332 32.7011 117.253 35.0887 121.263 38.083C111.579 19.4 92.8588 6.86983 71.8951 5.03931C76.1918 7.60489 80.2753 11.2445 83.9837 15.6614C86.9786 19.2289 89.7791 23.3549 92.3085 27.9415ZM56.9051 5.69329C64.5532 5.26654 72.8223 9.84185 80.3024 18.7518C82.4722 21.3363 84.5463 24.2555 86.4862 27.4669C78.6358 27.0689 70.2015 27.5882 61.5464 29.1245L56.9051 5.69329Z" fill="white"/>
</svg>
