<svg width="28" height="23" viewBox="0 0 28 23" fill="none" xmlns="http://www.w3.org/2000/svg">
<path d="M28 2.73084C26.9477 3.18737 25.8348 3.48917 24.696 3.62684C25.8974 2.90909 26.7978 1.77994 27.23 0.44884C26.101 1.12093 24.8651 1.59446 23.576 1.84884C22.7144 0.914441 21.567 0.292455 20.3137 0.0804324C19.0605 -0.131591 17.7724 0.0783422 16.6513 0.677306C15.5303 1.27627 14.6397 2.23038 14.1193 3.39001C13.599 4.54964 13.4782 5.84919 13.776 7.08484C11.4932 6.96938 9.26022 6.37498 7.22212 5.34025C5.18402 4.30552 3.38639 2.85361 1.946 1.07884C1.44079 1.96108 1.17533 2.96019 1.176 3.97684C1.17421 4.92098 1.4059 5.85091 1.85046 6.68383C2.29501 7.51676 2.93863 8.22684 3.724 8.75084C2.81117 8.72601 1.91784 8.48106 1.12 8.03684V8.10684C1.12684 9.42969 1.59039 10.7096 2.43224 11.73C3.27409 12.7504 4.44256 13.4487 5.74 13.7068C5.24056 13.8588 4.72203 13.939 4.2 13.9448C3.83865 13.9406 3.47819 13.9079 3.122 13.8468C3.49147 14.9848 4.20647 15.9792 5.16751 16.6919C6.12854 17.4045 7.28781 17.7998 8.484 17.8228C6.46408 19.4122 3.97024 20.2796 1.4 20.2868C0.932029 20.2884 0.46443 20.2603 0 20.2028C2.6242 21.8972 5.68234 22.7967 8.806 22.7928C10.9616 22.8152 13.1 22.4079 15.0964 21.5946C17.0927 20.7812 18.907 19.5783 20.4333 18.0559C21.9595 16.5336 23.1672 14.7224 23.9856 12.7281C24.804 10.7338 25.2169 8.59646 25.2 6.44084C25.2 6.20284 25.2 5.95084 25.2 5.69884C26.2986 4.87958 27.2461 3.87524 28 2.73084Z" fill="white"/>
</svg>
