<svg width="20" height="35" viewBox="0 0 20 35" fill="none" xmlns="http://www.w3.org/2000/svg">
<path d="M12.3997 0.46038H18.8648C18.8684 0.46038 18.8722 0.46194 18.8756 0.463338C18.8791 0.464773 18.8828 0.466573 18.8855 0.469253C18.8881 0.471895 18.8899 0.475632 18.8914 0.479111C18.8927 0.482546 18.8933 0.48627 18.8933 0.489955V7.28328C18.8933 7.29115 18.8909 7.29948 18.8855 7.30497C18.88 7.31039 18.8723 7.31279 18.8648 7.31285H13.2091C12.2692 7.31285 11.5066 8.0755 11.5066 9.01537V11.9443H18.8648C18.8723 11.9443 18.88 11.9477 18.8855 11.9531C18.8908 11.9586 18.8933 11.9661 18.8933 11.9738V18.8756C18.8933 18.8833 18.8908 18.8909 18.8855 18.8963C18.88 18.9017 18.8723 18.9051 18.8648 18.9052H11.9965V34.5098C11.9965 34.5175 11.9939 34.525 11.9886 34.5305C11.9832 34.5359 11.9755 34.5393 11.9679 34.5394H5.44767C5.44002 34.5394 5.43246 34.536 5.42697 34.5305C5.42154 34.525 5.41812 34.5176 5.4181 34.5098V18.9042H0.489955C0.482386 18.9042 0.474724 18.9017 0.469253 18.8963C0.463756 18.8908 0.46038 18.8825 0.46038 18.8746V11.9738C0.46038 11.9661 0.463969 11.9586 0.469253 11.9531C0.474734 11.9476 0.482313 11.9443 0.489955 11.9443H5.4181V8.68611C5.4181 8.68328 5.41843 8.67997 5.41908 8.67723L5.4319 8.624V8.56978C5.43362 6.58993 5.65105 4.56699 6.607 3.04324C7.53538 1.56366 9.21561 0.472331 12.3563 0.462352H12.378L12.3997 0.46038Z" fill="white" stroke="white" stroke-width="0.912982"/>
</svg>
